<?xml version="1.0" standalone="no"?>
<!DOCTYPE svg PUBLIC "-//W3C//DTD SVG 20010904//EN"
 "http://www.w3.org/TR/2001/REC-SVG-20010904/DTD/svg10.dtd">
<svg version="1.0" xmlns="http://www.w3.org/2000/svg"
 width="200.000000pt" height="200.000000pt" viewBox="0 0 200.000000 200.000000"
 preserveAspectRatio="xMidYMid meet">
<metadata>
Created by potrace 1.11, written by Peter Selinger 2001-2013
</metadata>
<g transform="translate(0.000000,200.000000) scale(0.100000,-0.100000)"
fill="#000000" stroke="none">
<path d="M0 1000 l0 -1000 1000 0 1000 0 0 1000 0 1000 -1000 0 -1000 0 0
-1000z m1552 -22 c75 -22 128 -107 128 -205 0 -40 2 -43 28 -43 15 0 33 -5 40
-12 17 -17 17 -329 0 -346 -13 -13 -461 -18 -492 -6 -14 5 -16 31 -16 179 0
187 -1 185 56 185 23 0 24 3 24 57 0 95 49 169 128 193 39 12 60 12 104 -2z"/>
<path d="M1441 906 c-35 -20 -50 -54 -51 -118 l0 -58 110 0 110 0 0 61 c0 56
-3 64 -34 95 -27 27 -42 34 -72 34 -22 -1 -50 -7 -63 -14z"/>
<path d="M1300 545 l0 -115 200 0 200 0 0 115 0 115 -200 0 -200 0 0 -115z"/>
</g>
</svg>
