<?xml version="1.0" standalone="no"?>
<!DOCTYPE svg PUBLIC "-//W3C//DTD SVG 20010904//EN"
 "http://www.w3.org/TR/2001/REC-SVG-20010904/DTD/svg10.dtd">
<svg version="1.0" xmlns="http://www.w3.org/2000/svg"
 width="700.000000pt" height="700.000000pt" viewBox="0 0 700.000000 700.000000"
 preserveAspectRatio="xMidYMid meet">
<metadata>
Created by potrace 1.14, written by Peter Selinger 2001-2017
</metadata>
<g transform="translate(0.000000,700.000000) scale(0.100000,-0.100000)"
fill="#000000" stroke="none">
<path d="M1012 6558 c-507 -42 -898 -398 -997 -908 -12 -64 -14 -378 -14
-2140 0 -1197 4 -2090 9 -2125 11 -68 13 -80 30 -150 7 -27 17 -54 21 -60 5
-5 9 -15 9 -22 0 -8 14 -44 31 -81 135 -290 413 -521 726 -602 41 -10 60 -13
178 -28 75 -9 4916 -7 5005 2 99 10 120 14 190 35 424 124 727 469 789 898 6
42 10 683 10 1698 0 1524 -1 1636 -18 1720 -90 454 -436 794 -896 880 -22 4
-1064 9 -2315 10 -2241 3 -2276 3 -2321 -17 -115 -49 -165 -173 -116 -290 19
-44 87 -104 134 -117 26 -8 734 -11 2278 -11 2328 -1 2257 0 2382 -38 112 -35
261 -155 331 -265 49 -78 89 -188 98 -269 9 -84 9 -3144 0 -3228 -22 -207
-161 -405 -347 -498 -164 -82 92 -74 -2674 -76 -2458 -2 -2558 -1 -2640 30
-236 87 -381 245 -440 479 -17 66 -18 192 -18 2115 0 1925 1 2049 18 2115 34
135 90 232 186 325 91 88 222 156 340 176 24 4 1252 8 2729 9 l2685 1 42 22
c79 41 123 111 123 197 0 92 -61 177 -147 206 -30 10 -575 12 -2678 13 -1452
1 -2677 -2 -2723 -6z"/>
<path d="M5153 3376 c-240 -78 -309 -387 -124 -554 98 -89 238 -111 358 -56
308 141 218 605 -120 620 -43 2 -89 -2 -114 -10z"/>
</g>
</svg>
